<svg xmlns="http://www.w3.org/2000/svg" xmlns:svg="http://www.w3.org/2000/svg" id="Layer_1" width="1280" height="1280" data-name="Layer 1" version="1.1" viewBox="0 0 1280 1280"><defs id="defs4"><style id="style2">.cls-1{fill:#e95420}.cls-3{fill:#fff}.cls-2{fill:none;stroke:#e65821;stroke-miterlimit:10;stroke-width:26px}</style></defs><rect id="rect1044" width="1280" height="1280" x="0" y="0" class="cls-3"/><path id="path6" d="M 1253.0526,26.94737 V 1253.0526 H 26.94737 V 26.94737 H 1253.0526 M 1280,0 H 0 v 1280 h 1280 z" class="cls-1" style="stroke-width:67.3684"/><circle id="circle8" cx="266.779" cy="625.179" r="138.779" class="cls-2"/><circle id="circle10" cx="848.842" cy="319.326" r="138.779" class="cls-2"/><path id="path12" d="M 581.38947,984.25263 A 336.84211,336.84211 0 0 1 349.64211,808.42105 202.10526,202.10526 0 0 1 229.72632,823.24211 454.73684,454.73684 0 0 0 556.46316,1098.1053 449.34737,449.34737 0 0 0 655.49474,1108.2105 208.16842,208.16842 0 0 1 613.72632,991.66316 C 606.31579,988.96842 593.51579,985.6 581.38947,984.25263 Z" class="cls-2"/><circle id="circle14" cx="816.505" cy="984.253" r="138.779" class="cls-2"/><path id="path16" d="m 1010.5263,933.72632 a 459.45263,459.45263 0 0 0 23.579,-538.94737 196.71579,196.71579 0 0 1 -77.47372,94.31579 344.25263,344.25263 0 0 1 -13.47369,340.21052 202.10526,202.10526 0 0 1 67.36841,104.42106 z" class="cls-2"/><path id="path18" d="m 256,423.74737 h 13.47368 a 227.70526,227.70526 0 0 1 42.44211,4.71579 218.27368,218.27368 0 0 1 67.36842,24.92631 A 336.84211,336.84211 0 0 1 646.73684,307.2 a 122.61053,122.61053 0 0 1 4.04211,-30.98947 194.02105,194.02105 0 0 1 38.4,-81.51579 A 461.47368,461.47368 0 0 0 256,423.74737 Z" class="cls-2"/></svg>