<svg xmlns="http://www.w3.org/2000/svg" xmlns:svg="http://www.w3.org/2000/svg" id="Layer_1" width="1280" height="1280" x="0" y="0" version="1.1" viewBox="0 0 1280 1280" xml:space="preserve"><style id="style2" type="text/css">.st0{fill:#fff}.st1{fill:#e65821}.st2{fill:none;stroke:#e65821;stroke-width:1.5;stroke-miterlimit:10}</style><g id="g22" transform="scale(10)"><rect id="rect4" width="128" height="128" x="0" y="0" class="st0"/><g id="g8"><path id="path6" d="m 107.5,1.5 v 125 h -87 V 1.5 h 87 M 109,0 H 19 v 128 h 90 z" class="st1"/></g><circle id="circle10" cx="38.6" cy="80.9" r="9.4" class="st2"/><circle id="circle12" cx="78" cy="60.2" r="9.4" class="st2"/><path id="path14" d="m 59.9,105.2 c -6.8,-1.4 -12.5,-5.8 -15.7,-12 -2.5,1.2 -5.4,1.5 -8.1,1 3.8,9.5 12.1,16.4 22.1,18.6 2.2,0.5 4.5,0.7 6.7,0.7 -1.7,-2.3 -2.7,-5 -2.8,-7.9 -0.6,-0.1 -1.4,-0.3 -2.2,-0.4 z" class="st2"/><circle id="circle16" cx="75.8" cy="105.2" r="9.4" class="st2"/><path id="path18" d="m 89,101.8 c 8.3,-10.5 8.9,-25.1 1.6,-36.3 -1.1,2.6 -2.9,4.7 -5.3,6.2 3.8,7.2 3.5,16 -0.8,23 2.2,1.8 3.8,4.3 4.5,7.1 z" class="st2"/><path id="path20" d="m 37.9,67.3 h 0.7 c 1,0 1.9,0.1 2.9,0.3 1.5,0.3 3,0.9 4.3,1.7 4.2,-6.1 11.1,-9.8 18.5,-9.9 0,-0.7 0.1,-1.4 0.3,-2.1 0.4,-2 1.3,-3.9 2.6,-5.5 -11.9,-0.9 -23.3,5.1 -29.3,15.5 z" class="st2"/></g></svg>