<svg xmlns="http://www.w3.org/2000/svg" xmlns:svg="http://www.w3.org/2000/svg" id="Layer_1" width="2480" height="1200" x="0" y="0" version="1.1" viewBox="0 0 2480 1200" xml:space="preserve"><style id="style2" type="text/css">.st0{fill:#fff}.st1{fill:#e65821}.st2{fill:none;stroke:#e65821;stroke-width:1.5;stroke-miterlimit:10}</style><g id="g22" transform="matrix(10,0,0,10,600,-40)"><rect id="rect4" width="248" height="120" x="-60" y="4" class="st0" style="stroke-width:1.34774"/><g id="g8" transform="matrix(0.9375,0,0,0.9375,4,4)"><path id="path6" d="m 107.5,1.5 v 125 h -87 V 1.5 h 87 M 109,0 H 19 v 128 h 90 z" class="st1"/></g><circle id="circle10" cx="40.188" cy="79.844" r="8.813" class="st2"/><circle id="circle12" cx="77.125" cy="60.438" r="8.813" class="st2"/><path id="path14" d="m 60.15625,102.625 c -6.375,-1.3125 -11.71875,-5.4375 -14.71875,-11.25 -2.34375,1.125 -5.0625,1.40625 -7.59375,0.9375 3.5625,8.90625 11.34375,15.375 20.71875,17.4375 2.0625,0.46875 4.21875,0.65625 6.28125,0.65625 C 63.25,108.25 62.3125,105.71875 62.21875,103 c -0.5625,-0.0937 -1.3125,-0.28125 -2.0625,-0.375 z" class="st2"/><circle id="circle16" cx="75.063" cy="102.625" r="8.813" class="st2"/><path id="path18" d="m 87.4375,99.4375 c 7.78125,-9.84375 8.34375,-23.53125 1.5,-34.03125 -1.03125,2.4375 -2.71875,4.40625 -4.96875,5.8125 3.5625,6.75 3.28125,15 -0.75,21.5625 2.0625,1.6875 3.5625,4.03125 4.21875,6.65625 z" class="st2"/><path id="path20" d="m 39.53125,67.09375 h 0.65625 c 0.9375,0 1.78125,0.09375 2.71875,0.28125 1.40625,0.28125 2.8125,0.84375 4.03125,1.59375 3.9375,-5.71875 10.40625,-9.1875 17.34375,-9.28125 0,-0.65625 0.09375,-1.3125 0.28125,-1.96875 C 64.9375,55.84375 65.78125,54.0625 67,52.5625 55.84375,51.71875 45.15625,57.34375 39.53125,67.09375 Z" class="st2"/></g></svg>