<svg xmlns="http://www.w3.org/2000/svg" xmlns:svg="http://www.w3.org/2000/svg" id="Layer_2" width="2480" height="1200" data-name="Layer 2" version="1.1" viewBox="0 0 2480 1200"><defs id="defs4"><style id="style2">.cls-1{fill:#fff}.cls-2{fill:#e95420}.cls-3{fill:#fff}</style></defs><rect id="rect6" width="2480" height="1200" x="0" y="0" class="cls-1" style="stroke-width:13.4774"/><rect id="rect8" width="843.75" height="1200" x="818.125" y="0" class="cls-2" style="stroke-width:9.375"/><circle id="circle10" cx="1001.875" cy="758.438" r="88.125" class="cls-3" style="stroke-width:9.375"/><circle id="circle12" cx="1371.25" cy="564.375" r="88.125" class="cls-3" style="stroke-width:9.375"/><path id="path14" d="m 1201.5625,986.25 a 213.9375,213.9375 0 0 1 -147.1875,-112.5 124.59375,124.59375 0 0 1 -75.9375,9.375 289.125,289.125 0 0 0 207.1875,174.375 286.03125,286.03125 0 0 0 62.8125,6.5625 131.25,131.25 0 0 1 -26.25,-74.0625 c -5.625,-0.9375 -13.125,-2.8125 -20.625,-3.75 z" class="cls-3" style="stroke-width:9.375"/><circle id="circle16" cx="1350.625" cy="986.25" r="88.125" class="cls-3" style="stroke-width:9.375"/><path id="path18" d="m 1474.375,954.375 a 291.65625,291.65625 0 0 0 15,-340.3125 125.0625,125.0625 0 0 1 -49.6875,58.125 218.53125,218.53125 0 0 1 -7.5,215.625 125.71875,125.71875 0 0 1 42.1875,66.5625 z" class="cls-3" style="stroke-width:9.375"/><path id="path20" d="m 995.3125,630.9375 h 6.5625 a 133.875,133.875 0 0 1 27.1875,2.8125 124.96875,124.96875 0 0 1 40.3125,15.9375 214.3125,214.3125 0 0 1 173.4375,-92.8125 71.34375,71.34375 0 0 1 2.8125,-19.6875 A 119.15625,119.15625 0 0 1 1270,485.625 291.75,291.75 0 0 0 995.3125,630.9375 Z" class="cls-3" style="stroke-width:9.375"/></svg>