<svg xmlns="http://www.w3.org/2000/svg" xmlns:svg="http://www.w3.org/2000/svg" id="Layer_2" width="1280" height="1280" data-name="Layer 2" version="1.1" viewBox="0 0 1280 1280"><defs id="defs4"><style id="style2">.cls-1{fill:#e95420}.cls-2{fill:#fff}</style></defs><rect id="rect6" width="1280" height="1280" x="0" y="0" class="cls-1" style="stroke-width:67.3684"/><circle id="circle8" cx="286.99" cy="633.263" r="134.063" class="cls-2" style="stroke-width:67.3684"/><circle id="circle10" cx="844.126" cy="338.863" r="134.063" class="cls-2" style="stroke-width:67.3684"/><path id="path12" d="M 588.8,976.84211 A 324.04211,324.04211 0 0 1 367.15789,808.42105 196.04211,196.04211 0 0 1 253.30526,822.56842 434.52632,434.52632 0 0 0 567.24211,1085.3053 445.97895,445.97895 0 0 0 662.23158,1095.4105 185.93684,185.93684 0 0 1 623.15789,983.57895 117.89474,117.89474 0 0 1 588.8,976.84211 Z" class="cls-2" style="stroke-width:67.3684"/><circle id="circle14" cx="813.811" cy="978.19" r="134.063" class="cls-2" style="stroke-width:67.3684"/><path id="path16" d="m 999.74737,929.01053 a 434.52632,434.52632 0 0 0 22.23153,-512.67369 192.67368,192.67368 0 0 1 -74.7789,87.57895 336.84211,336.84211 0 0 1 30.98947,222.31579 317.97895,317.97895 0 0 1 -42.4421,103.74737 177.17895,177.17895 0 0 1 64,99.03158 z" class="cls-2" style="stroke-width:67.3684"/><path id="path18" d="m 276.21053,441.26316 h 10.10526 a 156.29474,156.29474 0 0 1 39.74737,4.0421 177.85263,177.85263 0 0 1 60.63158,24.92632 328.75789,328.75789 0 0 1 263.41052,-141.47369 239.83158,239.83158 0 0 1 4.04211,-29.6421 A 182.56842,182.56842 0 0 1 691.2,220.96842 437.22105,437.22105 0 0 0 276.21053,441.26316 Z" class="cls-2" style="stroke-width:67.3684"/></svg>