<svg xmlns="http://www.w3.org/2000/svg" xmlns:svg="http://www.w3.org/2000/svg" id="Layer_2" width="1280" height="1280" data-name="Layer 2" version="1.1" viewBox="0 0 1280 1280"><defs id="defs4"><style id="style2">.cls-1{fill:#fff}.cls-2{fill:#e95420}.cls-3{fill:#fff}</style></defs><rect id="rect6" width="1280" height="1280" x="0" y="0" class="cls-1" style="stroke-width:10"/><rect id="rect8" width="900" height="1280" x="190" y="0" class="cls-2" style="stroke-width:10"/><circle id="circle10" cx="386" cy="809" r="94" class="cls-3" style="stroke-width:10"/><circle id="circle12" cx="780" cy="602" r="94" class="cls-3" style="stroke-width:10"/><path id="path14" d="m 599,1052 a 228.2,228.2 0 0 1 -157,-120 132.9,132.9 0 0 1 -81,10 308.4,308.4 0 0 0 221,186 305.1,305.1 0 0 0 67,7 140,140 0 0 1 -28,-79 c -6,-1 -14,-3 -22,-4 z" class="cls-3" style="stroke-width:10"/><circle id="circle16" cx="758" cy="1052" r="94" class="cls-3" style="stroke-width:10"/><path id="path18" d="m 890,1018 a 311.1,311.1 0 0 0 16,-363 133.4,133.4 0 0 1 -53,62 233.1,233.1 0 0 1 -8,230 134.1,134.1 0 0 1 45,71 z" class="cls-3" style="stroke-width:10"/><path id="path20" d="m 379,673 h 7 a 142.8,142.8 0 0 1 29,3 133.3,133.3 0 0 1 43,17 228.6,228.6 0 0 1 185,-99 76.1,76.1 0 0 1 3,-21 127.1,127.1 0 0 1 26,-55 311.2,311.2 0 0 0 -293,155 z" class="cls-3" style="stroke-width:10"/></svg>