<svg xmlns="http://www.w3.org/2000/svg" xmlns:svg="http://www.w3.org/2000/svg" id="Layer_1" width="1280" height="1281" x="0" y="0" version="1.1" viewBox="0 0 1280 1281" xml:space="preserve"><style id="style2" type="text/css">.st0{fill:#fff}.st1{fill:#e95420}.st2{font-family:&apos;Ubuntu-Light&apos;}.st3{font-size:16px}</style><rect id="rect870" width="1280" height="1280" x="0" y="1" class="st1" style="stroke-width:10"/><g id="g20" transform="matrix(10,0,0,10,0,1)"><rect id="rect4" width="74.4" height="95.2" x="26.7" y="-.1" class="st0"/><g id="g18"><circle id="circle6" cx="42.9" cy="57.7" r="7.8" class="st1"/><circle id="circle8" cx="75.4" cy="40.6" r="7.8" class="st1"/><path id="path10" d="m 60.6,77.8 c -5.7,-1.3 -10.3,-4.8 -13,-9.9 -2.1,1 -4.4,1.3 -6.7,0.8 3.2,7.9 10,13.5 18.3,15.3 1.9,0.4 3.7,0.6 5.6,0.6 -1.4,-1.9 -2.2,-4.2 -2.3,-6.5 -0.7,0 -1.3,-0.2 -1.9,-0.3 z" class="st1"/><circle id="circle12" cx="73.7" cy="77.8" r="7.8" class="st1"/><path id="path14" d="m 84.6,75 c 2.5,-3.1 4.2,-6.7 5,-10.5 1.4,-6.7 0.1,-13.8 -3.6,-19.4 -0.9,2.1 -2.5,3.9 -4.4,5.1 2.1,3.9 2.8,8.6 1.8,12.9 -0.4,2.2 -1.3,4.2 -2.5,6 1.8,1.6 3,3.6 3.7,5.9 z" class="st1"/><path id="path16" d="m 42.3,46.5 c 0.2,0 0.4,0 0.6,0 0.8,0 1.6,0.1 2.4,0.2 1.3,0.3 2.5,0.7 3.6,1.4 3.5,-5 9.1,-8.1 15.3,-8.1 0,-0.6 0.1,-1.2 0.2,-1.8 0.4,-1.6 1.1,-3.3 2.2,-4.5 C 56.8,32.9 47.2,38 42.3,46.5 Z" class="st1"/></g></g><text id="text22" x="300.761" y="1172.592" class="st0 st2 st3" style="fill:#fff;stroke-width:10;-inkscape-font-specification:'Ubuntu Light';font-family:Ubuntu;font-size:160px;font-stretch:normal;font-weight:300;font-variant:normal;font-style:normal">{{.IconVersion}}</text></svg>