<svg xmlns="http://www.w3.org/2000/svg" xmlns:svg="http://www.w3.org/2000/svg" id="Layer_1" width="1280" height="1280" data-name="Layer 1" version="1.1" viewBox="0 0 1280 1280"><defs id="defs4"><style id="style2">.cls-2{fill:#fff}.cls-3{fill:#e95420}</style></defs><rect id="rect862" width="1280" height="1280" x="0" y="0" class="cls-3"/><rect id="rect8" width="816" height="1280" x="240" y="0" class="cls-2" style="fill:#fff;stroke-width:65.3196"/><g id="g916" transform="translate(0,466)"><circle id="circle10" cx="424" cy="415.467" r="85.867" class="cls-3" style="stroke-width:53.3333"/><circle id="circle12" cx="781.867" cy="227.2" r="85.867" class="cls-3" style="stroke-width:53.3333"/><path id="path14" d="M 617.6,636.8 A 209.6,209.6 0 0 1 475.2,530.13333 128.53333,128.53333 0 0 1 401.6,539.2 a 281.06667,281.06667 0 0 0 201.6,168.53333 290.66667,290.66667 0 0 0 60.8,6.4 A 125.33333,125.33333 0 0 1 640,640 Z" class="cls-3" style="stroke-width:53.3333"/><circle id="circle16" cx="762.667" cy="636.8" r="85.867" class="cls-3" style="stroke-width:53.3333"/><path id="path18" d="M 882.13333,605.33333 A 280.53333,280.53333 0 0 0 896,276.26667 127.46667,127.46667 0 0 1 847.46667,332.8 a 209.06667,209.06667 0 0 1 20.26666,142.4 223.46667,223.46667 0 0 1 -26.66666,66.13333 130.66667,130.66667 0 0 1 41.06666,64 z" class="cls-3" style="stroke-width:53.3333"/><path id="path20" d="m 417.6,292.8 h 9.06667 a 145.06667,145.06667 0 0 1 26.13333,0 124.8,124.8 0 0 1 38.93333,16 210.13333,210.13333 0 0 1 168.53334,-90.13333 c 0,-6.4 0,-12.8 2.66666,-19.2 A 133.86667,133.86667 0 0 1 686.4,148.8 282.13333,282.13333 0 0 0 417.6,292.8 Z" class="cls-3" style="stroke-width:53.3333"/></g></svg>